<svg width="25" height="25" viewBox="0 0 25 25" fill="none" xmlns="http://www.w3.org/2000/svg">
<path d="M17.5156 13.5378V11.5691H13.4844V7.53784H11.5156V11.5691H7.48438V13.5378H11.5156V17.5691H13.4844V13.5378H17.5156ZM5.42188 5.52222C7.39062 3.55347 9.75 2.56909 12.5 2.56909C15.25 2.56909 17.5938 3.55347 19.5312 5.52222C21.5 7.45972 22.4844 9.80347 22.4844 12.5535C22.4844 15.3035 21.5 17.6628 19.5312 19.6316C17.5938 21.5691 15.25 22.5378 12.5 22.5378C9.75 22.5378 7.39062 21.5691 5.42188 19.6316C3.48438 17.6628 2.51562 15.3035 2.51562 12.5535C2.51562 9.80347 3.48438 7.45972 5.42188 5.52222Z" fill="#374259"/>
</svg>
